<svg xmlns="http://www.w3.org/2000/svg" version="1.1" width="237px" height="287px" style="shape-rendering:geometricPrecision; text-rendering:geometricPrecision; image-rendering:optimizeQuality; fill-rule:evenodd; clip-rule:evenodd" xmlns:xlink="http://www.w3.org/1999/xlink">
<g><path style="opacity:0.99" fill="#f5f5f5" d="M 103.5,49.5 C 106.349,50.5908 109.182,50.5908 112,49.5C 116.028,51.3429 120.194,52.6762 124.5,53.5C 128.108,52.3522 131.775,51.8522 135.5,52C 136.12,54.4728 136.786,56.9728 137.5,59.5C 140.167,57.8333 142.833,56.1667 145.5,54.5C 146.5,55 147.5,55.5 148.5,56C 149.378,60.3041 151.211,64.1374 154,67.5C 154.333,69.8333 154.667,72.1667 155,74.5C 156.333,75.1667 157.667,75.8333 159,76.5C 160.15,79.7679 160.984,83.1012 161.5,86.5C 164.991,86.4832 167.658,87.9832 169.5,91C 173.167,91.3333 176.833,91.6667 180.5,92C 180.957,92.414 181.291,92.914 181.5,93.5C 179.971,95.1881 178.137,96.5214 176,97.5C 175.833,98.3333 175.667,99.1667 175.5,100C 177.256,102.774 178.589,105.774 179.5,109C 175.516,111.93 172.016,115.43 169,119.5C 168.505,121.473 168.338,123.473 168.5,125.5C 167.167,125.5 165.833,125.5 164.5,125.5C 164.67,126.822 164.337,127.989 163.5,129C 166.345,133.264 166.012,137.264 162.5,141C 165.177,143.345 167.51,146.012 169.5,149C 170.793,149.49 172.127,149.657 173.5,149.5C 174.275,152.8 175.775,155.8 178,158.5C 177.989,161.437 178.155,164.27 178.5,167C 181.289,167.241 183.956,167.908 186.5,169C 191.014,172.091 195.347,175.425 199.5,179C 202.007,179.093 204.174,179.926 206,181.5C 208.751,187.248 211.918,192.748 215.5,198C 212.923,203.942 212.09,210.108 213,216.5C 215.041,217.423 217.208,217.756 219.5,217.5C 217.776,225.516 220.276,231.516 227,235.5C 227.319,238.973 228.819,241.806 231.5,244C 227.709,244.591 224.042,244.091 220.5,242.5C 219.446,242.68 218.446,243.013 217.5,243.5C 211.406,239.484 205.573,239.817 200,244.5C 197.374,252.934 192.874,260.101 186.5,266C 172.777,265.996 159.11,264.996 145.5,263C 126.167,247 106.833,231 87.5,215C 76.1667,208.333 64.8333,201.667 53.5,195C 44.9343,192.871 36.2676,191.204 27.5,190C 26.6919,189.692 26.0253,189.192 25.5,188.5C 28.118,185.308 27.118,183.975 22.5,184.5C 22.1967,175.103 20.1967,165.936 16.5,157C 32.6623,146.506 49.1623,136.673 66,127.5C 67,125.5 68,123.5 69,121.5C 69.1551,112.243 70.6551,103.243 73.5,94.5C 72.4041,91.0436 71.4041,87.5436 70.5,84C 70.7181,79.8683 72.0514,76.2016 74.5,73C 77.6366,72.3989 80.6366,71.3989 83.5,70C 90.4515,63.218 97.1181,56.3847 103.5,49.5 Z"/></g>
</svg>
